<?xml version="1.0" standalone="no"?>
<!DOCTYPE svg PUBLIC "-//W3C//DTD SVG 20010904//EN"
 "http://www.w3.org/TR/2001/REC-SVG-20010904/DTD/svg10.dtd">
<svg version="1.0" xmlns="http://www.w3.org/2000/svg"
 width="848.000000pt" height="480.000000pt" viewBox="0 0 848.000000 480.000000"
 preserveAspectRatio="xMidYMid meet">
<metadata>
Created by potrace 1.16, written by Peter Selinger 2001-2019
</metadata>
<g transform="translate(0.000000,480.000000) scale(0.100000,-0.100000)"
fill="#000000" stroke="none">
<path d="M0 2400 l0 -2400 4240 0 4240 0 0 2400 0 2400 -4240 0 -4240 0 0
-2400z m1503 -89 c75 -20 175 -75 176 -98 1 -6 15 -23 32 -37 35 -30 45 -26
80 30 11 19 27 34 34 34 8 0 18 6 22 13 23 39 164 81 249 74 72 -6 163 -32
183 -52 13 -13 13 -19 3 -35 -6 -11 -12 -26 -12 -34 0 -7 -7 -19 -15 -26 -8
-7 -15 -21 -15 -31 0 -23 -27 -25 -66 -4 -38 19 -137 20 -154 1 -6 -8 -21 -16
-33 -18 -12 -2 -23 -12 -25 -22 -2 -11 -14 -27 -26 -37 -18 -15 -21 -29 -24
-116 -2 -93 -1 -100 26 -138 45 -64 84 -85 159 -85 38 0 76 6 94 15 31 16 49
13 49 -9 0 -7 14 -32 31 -55 28 -40 29 -44 14 -61 -9 -10 -31 -20 -48 -23 -18
-3 -60 -10 -95 -17 -53 -10 -75 -10 -148 5 -127 25 -140 32 -238 135 -20 20
-20 20 -76 -38 -39 -40 -70 -62 -101 -71 -24 -8 -63 -20 -87 -27 -56 -18 -107
-18 -195 2 -80 18 -97 28 -97 56 0 22 28 80 43 90 6 3 50 4 98 1 113 -7 136 2
188 78 39 56 41 64 41 132 0 56 -5 79 -21 102 -11 17 -24 40 -29 53 -6 12 -18
25 -27 28 -10 3 -30 12 -45 20 -35 19 -88 18 -139 -3 -42 -16 -42 -16 -61 8
-10 13 -23 30 -30 38 -7 8 -12 35 -12 60 l-1 45 53 8 c30 5 61 12 70 18 27 15
93 12 175 -9z m2625 -63 c9 -9 12 -84 12 -274 0 -225 -2 -265 -16 -278 -21
-21 -107 -22 -124 -1 -16 19 -28 19 -64 0 -46 -24 -96 -19 -153 18 -28 17 -63
47 -79 66 -26 31 -28 40 -29 120 0 93 9 118 64 169 57 54 121 69 199 46 21 -6
22 -4 22 58 0 36 5 69 12 76 7 7 40 12 78 12 38 0 71 -5 78 -12z m-1080 -35
c30 -16 61 -38 69 -50 18 -27 10 -71 -15 -80 -9 -3 -27 -17 -39 -31 l-21 -25
-32 26 c-26 22 -41 27 -88 27 -66 0 -73 -4 -95 -49 -25 -50 -22 -120 6 -155
22 -27 29 -29 85 -29 50 0 67 4 85 21 27 25 57 29 57 7 0 -8 11 -17 24 -21 50
-12 60 -94 13 -115 -12 -5 -42 -21 -66 -34 -35 -20 -58 -25 -112 -25 -60 0
-77 5 -139 38 -95 51 -136 107 -146 200 -14 136 19 213 121 281 51 33 73 38
164 40 62 1 83 -3 129 -26z m3129 -25 c4 -7 10 -31 13 -53 4 -36 8 -40 35 -43
38 -5 45 -16 45 -79 l0 -52 -37 -3 -38 -3 0 -55 c0 -54 1 -55 33 -66 29 -9 37
-19 51 -62 18 -51 17 -52 -4 -72 -30 -28 -111 -27 -162 1 -78 43 -90 64 -108
179 l-11 75 -68 3 c-101 4 -106 -3 -106 -143 0 -73 -4 -115 -12 -123 -7 -7
-37 -12 -68 -12 -43 0 -61 5 -78 20 -21 20 -22 28 -22 210 0 177 1 190 19 200
26 14 104 13 135 -2 25 -11 55 -6 114 19 7 3 17 -7 23 -26 13 -37 18 -38 53
-6 18 17 26 34 26 58 0 18 3 37 7 40 12 13 151 8 160 -5z m-2665 -93 c66 -34
104 -78 113 -130 4 -22 9 -45 10 -51 5 -23 -24 -126 -41 -145 -9 -11 -29 -25
-43 -32 -14 -8 -43 -23 -64 -35 -42 -24 -113 -29 -150 -10 -12 6 -31 16 -42
21 -50 26 -62 34 -90 62 -33 34 -46 97 -37 178 4 39 13 56 47 91 83 86 193
105 297 51z m1017 1 c22 -14 45 -26 51 -26 5 0 17 -15 26 -32 9 -18 20 -35 24
-38 7 -5 30 -89 30 -109 0 -22 -33 -41 -71 -41 -48 0 -52 -20 -9 -52 45 -33
38 -51 -31 -87 -83 -42 -141 -42 -229 3 -54 27 -71 41 -98 87 -32 51 -33 58
-28 121 6 87 43 138 131 180 75 35 141 33 204 -6z m949 -1 c74 -37 97 -64 117
-140 14 -51 14 -57 3 -81 -9 -19 -19 -24 -50 -24 -35 0 -39 -2 -36 -22 2 -13
13 -27 25 -33 49 -21 29 -56 -53 -95 -80 -37 -154 -24 -266 46 -43 28 -88 109
-88 161 0 19 7 49 16 66 9 18 23 43 30 57 13 25 76 68 129 88 54 19 98 13 173
-23z m1166 2 c37 -19 74 -45 81 -58 35 -62 46 -96 43 -139 -3 -45 -3 -45 -43
-48 -63 -4 -68 -8 -49 -37 9 -14 22 -25 29 -25 20 0 25 -37 6 -53 -53 -47
-171 -73 -219 -48 -9 5 -34 17 -55 26 -50 22 -107 72 -107 95 0 11 -4 21 -9
24 -19 12 -22 82 -5 132 21 62 44 92 97 122 90 52 139 54 231 9z m-1846 14
c17 -4 29 -21 41 -56 27 -74 54 -124 68 -125 6 0 15 14 18 32 4 18 11 39 15
48 5 8 14 30 21 48 7 19 22 40 33 47 27 17 109 17 133 0 17 -13 17 -15 0 -49
-9 -20 -17 -46 -17 -57 0 -10 -11 -37 -25 -59 -14 -22 -25 -51 -25 -65 0 -13
-13 -47 -30 -73 -16 -27 -30 -61 -30 -75 0 -35 -25 -47 -99 -47 -49 0 -65 4
-90 26 -19 15 -31 35 -31 49 0 13 -13 47 -30 75 -16 28 -30 58 -30 66 0 8 -13
43 -29 77 -16 34 -32 79 -36 99 -7 34 -5 37 22 41 43 6 95 6 121 -2z m2183
-29 c24 -27 33 -31 48 -22 11 5 22 19 26 29 3 11 19 22 35 26 34 7 138 -3 145
-15 7 -11 -21 -63 -45 -85 -11 -10 -20 -26 -20 -37 0 -10 -7 -18 -15 -18 -8 0
-22 -11 -31 -25 -16 -25 -16 -27 15 -65 17 -21 31 -43 31 -48 0 -5 7 -16 16
-23 9 -8 28 -31 42 -53 23 -38 24 -40 6 -53 -10 -8 -45 -13 -85 -13 -64 0 -68
1 -93 35 -15 19 -34 35 -41 35 -8 0 -32 -16 -54 -35 -35 -32 -44 -35 -98 -35
-101 0 -108 31 -28 125 44 51 55 72 55 99 0 19 -4 37 -9 41 -14 8 -101 141
-101 153 0 17 20 20 98 18 70 -1 76 -3 103 -34z"/>
</g>
</svg>
